<mxfile host="app.diagrams.net" modified="2024-01-03T22:03:04.919Z" agent="Mozilla/5.0 (X11; Linux x86_64) AppleWebKit/537.36 (KHTML, like Gecko) Chrome/120.0.0.0 Safari/537.36" etag="BjM5NAmNRbGgKyZNguJb" version="22.1.16" type="device">
  <diagram name="PÃ¡gina-1" id="-ddALgZMnIDYTSUlqgd3">
    <mxGraphModel dx="1434" dy="740" grid="1" gridSize="10" guides="1" tooltips="1" connect="1" arrows="1" fold="1" page="1" pageScale="1" pageWidth="827" pageHeight="1169" math="0" shadow="0">
      <root>
        <mxCell id="0" />
        <mxCell id="1" parent="0" />
        <mxCell id="wgZjU7KqQt9MiSAjCHMR-23" value="" style="rounded=0;whiteSpace=wrap;html=1;fillColor=#fad9d5;strokeColor=#ae4132;" vertex="1" parent="1">
          <mxGeometry x="210" y="60" width="600" height="610" as="geometry" />
        </mxCell>
        <mxCell id="wgZjU7KqQt9MiSAjCHMR-22" value="" style="rounded=0;whiteSpace=wrap;html=1;fillColor=#bac8d3;strokeColor=#23445d;" vertex="1" parent="1">
          <mxGeometry x="20" y="60" width="90" height="610" as="geometry" />
        </mxCell>
        <mxCell id="wgZjU7KqQt9MiSAjCHMR-4" style="edgeStyle=orthogonalEdgeStyle;rounded=0;orthogonalLoop=1;jettySize=auto;html=1;entryX=0;entryY=0.5;entryDx=0;entryDy=0;dashed=1;" edge="1" parent="1" source="wgZjU7KqQt9MiSAjCHMR-1" target="wgZjU7KqQt9MiSAjCHMR-3">
          <mxGeometry relative="1" as="geometry" />
        </mxCell>
        <mxCell id="wgZjU7KqQt9MiSAjCHMR-6" style="edgeStyle=orthogonalEdgeStyle;rounded=0;orthogonalLoop=1;jettySize=auto;html=1;" edge="1" parent="1" source="wgZjU7KqQt9MiSAjCHMR-1" target="wgZjU7KqQt9MiSAjCHMR-5">
          <mxGeometry relative="1" as="geometry" />
        </mxCell>
        <mxCell id="wgZjU7KqQt9MiSAjCHMR-1" value="Pipeline" style="rounded=1;whiteSpace=wrap;html=1;fillColor=#d5e8d4;strokeColor=#82b366;" vertex="1" parent="1">
          <mxGeometry x="450" y="420" width="120" height="60" as="geometry" />
        </mxCell>
        <mxCell id="wgZjU7KqQt9MiSAjCHMR-3" value="PipelineRun" style="triangle;whiteSpace=wrap;html=1;fillColor=#d5e8d4;strokeColor=#82b366;" vertex="1" parent="1">
          <mxGeometry x="710" y="410" width="80" height="80" as="geometry" />
        </mxCell>
        <mxCell id="wgZjU7KqQt9MiSAjCHMR-5" value="Task" style="rounded=1;whiteSpace=wrap;html=1;fillColor=#e1d5e7;strokeColor=#9673a6;" vertex="1" parent="1">
          <mxGeometry x="450" y="565" width="120" height="60" as="geometry" />
        </mxCell>
        <mxCell id="wgZjU7KqQt9MiSAjCHMR-10" style="edgeStyle=orthogonalEdgeStyle;rounded=0;orthogonalLoop=1;jettySize=auto;html=1;" edge="1" parent="1" source="wgZjU7KqQt9MiSAjCHMR-8" target="wgZjU7KqQt9MiSAjCHMR-1">
          <mxGeometry relative="1" as="geometry" />
        </mxCell>
        <mxCell id="wgZjU7KqQt9MiSAjCHMR-11" style="edgeStyle=orthogonalEdgeStyle;rounded=0;orthogonalLoop=1;jettySize=auto;html=1;entryX=0.5;entryY=0;entryDx=0;entryDy=0;" edge="1" parent="1" source="wgZjU7KqQt9MiSAjCHMR-8" target="wgZjU7KqQt9MiSAjCHMR-3">
          <mxGeometry relative="1" as="geometry">
            <Array as="points">
              <mxPoint x="510" y="340" />
              <mxPoint x="750" y="340" />
            </Array>
          </mxGeometry>
        </mxCell>
        <mxCell id="wgZjU7KqQt9MiSAjCHMR-8" value="TriggerTemplate" style="shape=parallelogram;perimeter=parallelogramPerimeter;whiteSpace=wrap;html=1;fixedSize=1;fillColor=#ffe6cc;strokeColor=#d79b00;" vertex="1" parent="1">
          <mxGeometry x="430" y="240" width="160" height="60" as="geometry" />
        </mxCell>
        <mxCell id="wgZjU7KqQt9MiSAjCHMR-13" style="edgeStyle=orthogonalEdgeStyle;rounded=0;orthogonalLoop=1;jettySize=auto;html=1;" edge="1" parent="1" source="wgZjU7KqQt9MiSAjCHMR-12" target="wgZjU7KqQt9MiSAjCHMR-8">
          <mxGeometry relative="1" as="geometry" />
        </mxCell>
        <mxCell id="wgZjU7KqQt9MiSAjCHMR-12" value="TriggerBingding" style="shape=parallelogram;perimeter=parallelogramPerimeter;whiteSpace=wrap;html=1;fixedSize=1;fillColor=#ffe6cc;strokeColor=#d79b00;" vertex="1" parent="1">
          <mxGeometry x="430" y="70" width="160" height="60" as="geometry" />
        </mxCell>
        <mxCell id="wgZjU7KqQt9MiSAjCHMR-16" style="edgeStyle=orthogonalEdgeStyle;rounded=0;orthogonalLoop=1;jettySize=auto;html=1;" edge="1" parent="1" source="wgZjU7KqQt9MiSAjCHMR-15" target="wgZjU7KqQt9MiSAjCHMR-12">
          <mxGeometry relative="1" as="geometry">
            <Array as="points">
              <mxPoint x="310" y="90" />
            </Array>
          </mxGeometry>
        </mxCell>
        <mxCell id="wgZjU7KqQt9MiSAjCHMR-17" style="edgeStyle=orthogonalEdgeStyle;rounded=0;orthogonalLoop=1;jettySize=auto;html=1;entryX=0;entryY=0.5;entryDx=0;entryDy=0;" edge="1" parent="1" source="wgZjU7KqQt9MiSAjCHMR-15" target="wgZjU7KqQt9MiSAjCHMR-8">
          <mxGeometry relative="1" as="geometry">
            <Array as="points">
              <mxPoint x="310" y="270" />
            </Array>
          </mxGeometry>
        </mxCell>
        <mxCell id="wgZjU7KqQt9MiSAjCHMR-15" value="EventListener" style="shape=hexagon;perimeter=hexagonPerimeter2;whiteSpace=wrap;html=1;fixedSize=1;fillColor=#dae8fc;strokeColor=#6c8ebf;" vertex="1" parent="1">
          <mxGeometry x="250" y="140" width="120" height="80" as="geometry" />
        </mxCell>
        <mxCell id="wgZjU7KqQt9MiSAjCHMR-20" style="edgeStyle=orthogonalEdgeStyle;rounded=0;orthogonalLoop=1;jettySize=auto;html=1;entryX=0;entryY=0.5;entryDx=0;entryDy=0;dashed=1;" edge="1" parent="1" source="wgZjU7KqQt9MiSAjCHMR-18" target="wgZjU7KqQt9MiSAjCHMR-15">
          <mxGeometry relative="1" as="geometry" />
        </mxCell>
        <mxCell id="wgZjU7KqQt9MiSAjCHMR-21" value="Curl" style="edgeLabel;html=1;align=center;verticalAlign=middle;resizable=0;points=[];fontSize=25;" vertex="1" connectable="0" parent="wgZjU7KqQt9MiSAjCHMR-20">
          <mxGeometry x="-0.8216" y="-1" relative="1" as="geometry">
            <mxPoint x="65" y="-21" as="offset" />
          </mxGeometry>
        </mxCell>
        <mxCell id="wgZjU7KqQt9MiSAjCHMR-18" value="Actor" style="shape=umlActor;verticalLabelPosition=bottom;verticalAlign=top;html=1;outlineConnect=0;" vertex="1" parent="1">
          <mxGeometry x="50" y="150" width="30" height="60" as="geometry" />
        </mxCell>
        <mxCell id="wgZjU7KqQt9MiSAjCHMR-25" value="Cliente" style="edgeLabel;html=1;align=center;verticalAlign=middle;resizable=0;points=[];fontSize=25;" vertex="1" connectable="0" parent="1">
          <mxGeometry x="65" y="30" as="geometry">
            <mxPoint x="-10" as="offset" />
          </mxGeometry>
        </mxCell>
        <mxCell id="wgZjU7KqQt9MiSAjCHMR-26" value="Cluster" style="edgeLabel;html=1;align=center;verticalAlign=middle;resizable=0;points=[];fontSize=25;" vertex="1" connectable="0" parent="1">
          <mxGeometry x="250" y="30" as="geometry">
            <mxPoint x="-10" as="offset" />
          </mxGeometry>
        </mxCell>
      </root>
    </mxGraphModel>
  </diagram>
</mxfile>
